<svg width="12" height="15" viewBox="0 0 12 15" fill="none" xmlns="http://www.w3.org/2000/svg">
<path d="M9.66783 2.41209H7.6018C7.49874 1.51841 6.73838 0.821899 5.81748 0.821899C4.89661 0.821899 4.13636 1.51838 4.0333 2.41209H1.96717C1.13106 2.41209 0.450928 3.09242 0.450928 3.9285V4.0063C0.450928 4.64522 0.848758 5.19209 1.40919 5.41491V12.5783C1.40919 13.4144 2.08941 14.0947 2.92545 14.0947H8.70957C9.54564 14.0947 10.2258 13.4144 10.2258 12.5783V5.41494C10.7862 5.19209 11.1841 4.64522 11.1841 4.00633V3.92852C11.1841 3.09242 10.5039 2.41209 9.66783 2.41209ZM5.81748 1.54105C6.34124 1.54105 6.77841 1.91646 6.87514 2.41209H4.76001C4.85672 1.91643 5.29392 1.54105 5.81748 1.54105ZM9.50666 12.5783C9.50666 13.0179 9.149 13.3756 8.70954 13.3756H2.92543C2.48597 13.3756 2.12831 13.0179 2.12831 12.5783V5.52271H9.50666V12.5783ZM10.4649 4.0063C10.4649 4.4459 10.1073 4.80359 9.6678 4.80359H1.96717C1.52771 4.80359 1.17005 4.4459 1.17005 4.0063V3.9285C1.17005 3.4889 1.52771 3.13121 1.96717 3.13121H9.66783C10.1073 3.13121 10.4649 3.4889 10.4649 3.9285V4.0063H10.4649Z" fill="#F3003A"/>
<path d="M3.8924 12.4559C4.09098 12.4559 4.25196 12.2949 4.25196 12.0964V8.04782C4.25196 7.84929 4.09096 7.68823 3.8924 7.68823C3.69384 7.68823 3.53284 7.84929 3.53284 8.04782V12.0964C3.53281 12.295 3.69381 12.4559 3.8924 12.4559Z" fill="#F3003A"/>
<path d="M5.82184 12.4559C6.02043 12.4559 6.18143 12.2949 6.18143 12.0964V8.04782C6.18143 7.84929 6.02037 7.68823 5.82184 7.68823C5.62328 7.68823 5.46228 7.84929 5.46228 8.04782V12.0964C5.46228 12.295 5.62326 12.4559 5.82184 12.4559Z" fill="#F3003A"/>
<path d="M7.74509 12.4559C7.94364 12.4559 8.10462 12.2949 8.10462 12.0964V8.04782C8.10462 7.84929 7.94362 7.68823 7.74509 7.68823C7.54647 7.68823 7.3855 7.84929 7.3855 8.04782V12.0964C7.38547 12.295 7.54653 12.4559 7.74509 12.4559Z" fill="#F3003A"/>
</svg>
