<svg width="14" height="14" viewBox="0 0 14 14" fill="none" xmlns="http://www.w3.org/2000/svg">
<path d="M11.0611 6.98544C10.7392 6.98544 10.479 7.24628 10.479 7.56757V12.2249C10.479 12.5456 10.2182 12.807 9.89688 12.807H1.7466C1.42521 12.807 1.16448 12.5456 1.16448 12.2249V4.07461C1.16448 3.75386 1.42521 3.49248 1.7466 3.49248H6.40392C6.72584 3.49248 6.98604 3.23164 6.98604 2.91036C6.98604 2.58897 6.72584 2.32812 6.40392 2.32812H1.7466C0.783714 2.32812 0.00012207 3.11172 0.00012207 4.07461V12.2249C0.00012207 13.1878 0.783714 13.9714 1.7466 13.9714H9.89688C10.8598 13.9714 11.6434 13.1878 11.6434 12.2249V7.56757C11.6434 7.24564 11.383 6.98544 11.0611 6.98544Z" fill="#3C4C69"/>
<path d="M5.45827 6.45516C5.41755 6.49588 5.39016 6.54769 5.37854 6.60355L4.96697 8.66214C4.94778 8.75755 4.97806 8.85594 5.0467 8.92522C5.10203 8.98055 5.17654 9.01018 5.25286 9.01018C5.27141 9.01018 5.2907 9.00848 5.30989 9.00442L7.36785 8.59285C7.42488 8.58113 7.47668 8.55384 7.51687 8.51301L12.1229 3.90697L10.065 1.84912L5.45827 6.45516Z" fill="#3C4C69"/>
<path d="M13.5457 0.425721C12.9782 -0.141907 12.0549 -0.141907 11.4878 0.425721L10.6821 1.23138L12.7401 3.28933L13.5457 2.48357C13.8205 2.2094 13.9719 1.84378 13.9719 1.45491C13.9719 1.06605 13.8205 0.70042 13.5457 0.425721Z" fill="#3C4C69"/>
</svg>
