<svg width="200" height="171" viewBox="0 0 200 171" fill="none" xmlns="http://www.w3.org/2000/svg">
<path d="M0 5C0 2.23858 2.23858 0 5 0H195C197.761 0 200 2.23858 200 5V166C200 168.761 197.761 171 195 171H5C2.23857 171 0 168.761 0 166V5Z" fill="#E8E8E8"/>
<path d="M100.165 104.657C94.2442 104.657 88.3255 104.659 82.4046 104.657C78.5515 104.655 76.0243 102.173 76.0153 98.3108C75.9949 89.6771 75.9949 81.0411 76.0153 72.4074C76.0266 68.5544 78.5447 66.0226 82.391 66.0158C94.2307 65.9955 106.07 65.9932 117.91 66.0181C121.727 66.0249 124.259 68.6313 124.261 72.4459C124.265 81.0434 124.265 89.6409 124.261 98.2361C124.259 102.132 121.725 104.653 117.813 104.655C111.93 104.659 106.048 104.657 100.165 104.657ZM119.34 89.0752C119.41 88.6838 119.446 88.5775 119.446 88.4734C119.448 83.1611 119.458 77.8464 119.444 72.5341C119.442 71.2286 119.05 70.9051 117.598 70.9051C105.955 70.9028 94.3121 70.9028 82.667 70.9051C81.0968 70.9051 80.8208 71.1811 80.8208 72.7445C80.8186 79.7153 80.8186 86.686 80.8231 93.6568C80.8231 93.9668 80.8661 94.279 80.9045 94.7699C83.1535 92.5142 85.235 90.3897 87.3617 88.3082C89.2509 86.4575 91.7125 86.4779 93.5972 88.3331C94.5044 89.2268 95.3619 90.1725 96.3054 91.1635C96.733 90.6658 97.0543 90.3038 97.3642 89.9305C99.9955 86.7788 102.611 83.6136 105.256 80.4732C106.928 78.4867 109.643 78.2695 111.453 79.9551C111.865 80.3375 112.222 80.7809 112.591 81.2108C114.792 83.7742 116.994 86.3421 119.34 89.0752Z" fill="white"/>
<path d="M83.2598 78.1609C83.2394 75.4368 85.4114 73.2309 88.0902 73.2581C90.7441 73.2852 92.8618 75.4368 92.8596 78.1089C92.8596 80.7854 90.7441 82.9235 88.0857 82.9348C85.4227 82.9461 83.2801 80.8261 83.2598 78.1609Z" fill="white"/>
</svg>
