<svg width="144" height="25" viewBox="0 0 144 25" fill="none" xmlns="http://www.w3.org/2000/svg">
<path d="M4.825 14.7H10.425V18H0.55V0.449999H4.825V14.7ZM18.8141 18.2C17.4474 18.2 16.2141 17.9083 15.1141 17.325C14.0307 16.7417 13.1724 15.9083 12.5391 14.825C11.9224 13.7417 11.6141 12.475 11.6141 11.025C11.6141 9.59167 11.9307 8.33333 12.5641 7.25C13.1974 6.15 14.0641 5.30833 15.1641 4.725C16.2641 4.14167 17.4974 3.85 18.8641 3.85C20.2307 3.85 21.4641 4.14167 22.5641 4.725C23.6641 5.30833 24.5307 6.15 25.1641 7.25C25.7974 8.33333 26.1141 9.59167 26.1141 11.025C26.1141 12.4583 25.7891 13.725 25.1391 14.825C24.5057 15.9083 23.6307 16.7417 22.5141 17.325C21.4141 17.9083 20.1807 18.2 18.8141 18.2ZM18.8141 14.5C19.6307 14.5 20.3224 14.2 20.8891 13.6C21.4724 13 21.7641 12.1417 21.7641 11.025C21.7641 9.90833 21.4807 9.05 20.9141 8.45C20.3641 7.85 19.6807 7.55 18.8641 7.55C18.0307 7.55 17.3391 7.85 16.7891 8.45C16.2391 9.03333 15.9641 9.89167 15.9641 11.025C15.9641 12.1417 16.2307 13 16.7641 13.6C17.3141 14.2 17.9974 14.5 18.8141 14.5ZM33.682 3.85C34.6654 3.85 35.5237 4.05 36.257 4.45C37.007 4.85 37.582 5.375 37.982 6.025V4.05H42.257V17.975C42.257 19.2583 41.9987 20.4167 41.482 21.45C40.982 22.5 40.207 23.3333 39.157 23.95C38.1237 24.5667 36.832 24.875 35.282 24.875C33.2154 24.875 31.5404 24.3833 30.257 23.4C28.9737 22.4333 28.2404 21.1167 28.057 19.45H32.282C32.4154 19.9833 32.732 20.4 33.232 20.7C33.732 21.0167 34.3487 21.175 35.082 21.175C35.9654 21.175 36.6654 20.9167 37.182 20.4C37.7154 19.9 37.982 19.0917 37.982 17.975V16C37.5654 16.65 36.9904 17.1833 36.257 17.6C35.5237 18 34.6654 18.2 33.682 18.2C32.532 18.2 31.4904 17.9083 30.557 17.325C29.6237 16.725 28.882 15.8833 28.332 14.8C27.7987 13.7 27.532 12.4333 27.532 11C27.532 9.56667 27.7987 8.30833 28.332 7.225C28.882 6.14167 29.6237 5.30833 30.557 4.725C31.4904 4.14167 32.532 3.85 33.682 3.85ZM37.982 11.025C37.982 9.95833 37.682 9.11667 37.082 8.5C36.4987 7.88333 35.782 7.575 34.932 7.575C34.082 7.575 33.357 7.88333 32.757 8.5C32.1737 9.1 31.882 9.93333 31.882 11C31.882 12.0667 32.1737 12.9167 32.757 13.55C33.357 14.1667 34.082 14.475 34.932 14.475C35.782 14.475 36.4987 14.1667 37.082 13.55C37.682 12.9333 37.982 12.0917 37.982 11.025ZM51.6998 18.2C50.3331 18.2 49.0998 17.9083 47.9998 17.325C46.9165 16.7417 46.0581 15.9083 45.4248 14.825C44.8081 13.7417 44.4998 12.475 44.4998 11.025C44.4998 9.59167 44.8165 8.33333 45.4498 7.25C46.0831 6.15 46.9498 5.30833 48.0498 4.725C49.1498 4.14167 50.3831 3.85 51.7498 3.85C53.1165 3.85 54.3498 4.14167 55.4498 4.725C56.5498 5.30833 57.4165 6.15 58.0498 7.25C58.6831 8.33333 58.9998 9.59167 58.9998 11.025C58.9998 12.4583 58.6748 13.725 58.0248 14.825C57.3915 15.9083 56.5165 16.7417 55.3998 17.325C54.2998 17.9083 53.0665 18.2 51.6998 18.2ZM51.6998 14.5C52.5165 14.5 53.2081 14.2 53.7748 13.6C54.3581 13 54.6498 12.1417 54.6498 11.025C54.6498 9.90833 54.3665 9.05 53.7998 8.45C53.2498 7.85 52.5665 7.55 51.7498 7.55C50.9165 7.55 50.2248 7.85 49.6748 8.45C49.1248 9.03333 48.8498 9.89167 48.8498 11.025C48.8498 12.1417 49.1165 13 49.6498 13.6C50.1998 14.2 50.8831 14.5 51.6998 14.5ZM63.2678 18.2C62.5178 18.2 61.9011 17.9833 61.4178 17.55C60.9511 17.1 60.7178 16.55 60.7178 15.9C60.7178 15.2333 60.9511 14.675 61.4178 14.225C61.9011 13.775 62.5178 13.55 63.2678 13.55C64.0011 13.55 64.6011 13.775 65.0678 14.225C65.5511 14.675 65.7928 15.2333 65.7928 15.9C65.7928 16.55 65.5511 17.1 65.0678 17.55C64.6011 17.9833 64.0011 18.2 63.2678 18.2Z" fill="white"/>
<path d="M84.0234 18H79.7484L72.5984 7.175V18H68.3234V0.449999H72.5984L79.7484 11.325V0.449999H84.0234V18ZM86.2723 11C86.2723 9.56667 86.5389 8.30833 87.0723 7.225C87.6223 6.14167 88.3639 5.30833 89.2973 4.725C90.2306 4.14167 91.2723 3.85 92.4223 3.85C93.4056 3.85 94.2639 4.05 94.9973 4.45C95.7473 4.85 96.3223 5.375 96.7223 6.025V4.05H100.997V18H96.7223V16.025C96.3056 16.675 95.7223 17.2 94.9723 17.6C94.2389 18 93.3806 18.2 92.3973 18.2C91.2639 18.2 90.2306 17.9083 89.2973 17.325C88.3639 16.725 87.6223 15.8833 87.0723 14.8C86.5389 13.7 86.2723 12.4333 86.2723 11ZM96.7223 11.025C96.7223 9.95833 96.4223 9.11667 95.8223 8.5C95.2389 7.88333 94.5223 7.575 93.6723 7.575C92.8223 7.575 92.0973 7.88333 91.4973 8.5C90.9139 9.1 90.6223 9.93333 90.6223 11C90.6223 12.0667 90.9139 12.9167 91.4973 13.55C92.0973 14.1667 92.8223 14.475 93.6723 14.475C94.5223 14.475 95.2389 14.1667 95.8223 13.55C96.4223 12.9333 96.7223 12.0917 96.7223 11.025ZM121.89 3.9C123.623 3.9 124.998 4.425 126.015 5.475C127.048 6.525 127.565 7.98333 127.565 9.85V18H123.315V10.425C123.315 9.525 123.073 8.83333 122.59 8.35C122.123 7.85 121.473 7.6 120.64 7.6C119.807 7.6 119.148 7.85 118.665 8.35C118.198 8.83333 117.965 9.525 117.965 10.425V18H113.715V10.425C113.715 9.525 113.473 8.83333 112.99 8.35C112.523 7.85 111.873 7.6 111.04 7.6C110.207 7.6 109.548 7.85 109.065 8.35C108.598 8.83333 108.365 9.525 108.365 10.425V18H104.09V4.05H108.365V5.8C108.798 5.21667 109.365 4.75833 110.065 4.425C110.765 4.075 111.557 3.9 112.44 3.9C113.49 3.9 114.423 4.125 115.24 4.575C116.073 5.025 116.723 5.66667 117.19 6.5C117.673 5.73333 118.332 5.10833 119.165 4.625C119.998 4.14167 120.907 3.9 121.89 3.9ZM143.705 10.8C143.705 11.2 143.68 11.6167 143.63 12.05H133.955C134.022 12.9167 134.297 13.5833 134.78 14.05C135.28 14.5 135.888 14.725 136.605 14.725C137.672 14.725 138.413 14.275 138.83 13.375H143.38C143.147 14.2917 142.722 15.1167 142.105 15.85C141.505 16.5833 140.747 17.1583 139.83 17.575C138.913 17.9917 137.888 18.2 136.755 18.2C135.388 18.2 134.172 17.9083 133.105 17.325C132.038 16.7417 131.205 15.9083 130.605 14.825C130.005 13.7417 129.705 12.475 129.705 11.025C129.705 9.575 129.997 8.30833 130.58 7.225C131.18 6.14167 132.013 5.30833 133.08 4.725C134.147 4.14167 135.372 3.85 136.755 3.85C138.105 3.85 139.305 4.13333 140.355 4.7C141.405 5.26667 142.222 6.075 142.805 7.125C143.405 8.175 143.705 9.4 143.705 10.8ZM139.33 9.675C139.33 8.94167 139.08 8.35833 138.58 7.925C138.08 7.49167 137.455 7.275 136.705 7.275C135.988 7.275 135.38 7.48333 134.88 7.9C134.397 8.31667 134.097 8.90833 133.98 9.675H139.33Z" fill="#0D5CFC"/>
</svg>
