<svg width="115" height="21" viewBox="0 0 115 21" fill="none" xmlns="http://www.w3.org/2000/svg">
<path d="M3.66 12.36H8.14V15H0.24V0.96H3.66V12.36ZM14.8513 15.16C13.7579 15.16 12.7713 14.9267 11.8913 14.46C11.0246 13.9933 10.3379 13.3267 9.83125 12.46C9.33792 11.5933 9.09125 10.58 9.09125 9.42C9.09125 8.27333 9.34458 7.26667 9.85125 6.4C10.3579 5.52 11.0513 4.84667 11.9313 4.38C12.8113 3.91333 13.7979 3.68 14.8913 3.68C15.9846 3.68 16.9713 3.91333 17.8513 4.38C18.7313 4.84667 19.4246 5.52 19.9313 6.4C20.4379 7.26667 20.6913 8.27333 20.6913 9.42C20.6913 10.5667 20.4313 11.58 19.9113 12.46C19.4046 13.3267 18.7046 13.9933 17.8113 14.46C16.9313 14.9267 15.9446 15.16 14.8513 15.16ZM14.8513 12.2C15.5046 12.2 16.0579 11.96 16.5113 11.48C16.9779 11 17.2113 10.3133 17.2113 9.42C17.2113 8.52667 16.9846 7.84 16.5313 7.36C16.0913 6.88 15.5446 6.64 14.8913 6.64C14.2246 6.64 13.6713 6.88 13.2313 7.36C12.7913 7.82667 12.5713 8.51333 12.5713 9.42C12.5713 10.3133 12.7846 11 13.2113 11.48C13.6513 11.96 14.1979 12.2 14.8513 12.2ZM26.7456 3.68C27.5323 3.68 28.219 3.84 28.8056 4.16C29.4056 4.48 29.8656 4.9 30.1856 5.42V3.84H33.6056V14.98C33.6056 16.0067 33.399 16.9333 32.9856 17.76C32.5856 18.6 31.9656 19.2667 31.1256 19.76C30.299 20.2533 29.2656 20.5 28.0256 20.5C26.3723 20.5 25.0323 20.1067 24.0056 19.32C22.979 18.5467 22.3923 17.4933 22.2456 16.16H25.6256C25.7323 16.5867 25.9856 16.92 26.3856 17.16C26.7856 17.4133 27.279 17.54 27.8656 17.54C28.5723 17.54 29.1323 17.3333 29.5456 16.92C29.9723 16.52 30.1856 15.8733 30.1856 14.98V13.4C29.8523 13.92 29.3923 14.3467 28.8056 14.68C28.219 15 27.5323 15.16 26.7456 15.16C25.8256 15.16 24.9923 14.9267 24.2456 14.46C23.499 13.98 22.9056 13.3067 22.4656 12.44C22.039 11.56 21.8256 10.5467 21.8256 9.4C21.8256 8.25333 22.039 7.24667 22.4656 6.38C22.9056 5.51333 23.499 4.84667 24.2456 4.38C24.9923 3.91333 25.8256 3.68 26.7456 3.68ZM30.1856 9.42C30.1856 8.56667 29.9456 7.89333 29.4656 7.4C28.999 6.90667 28.4256 6.66 27.7456 6.66C27.0656 6.66 26.4856 6.90667 26.0056 7.4C25.539 7.88 25.3056 8.54667 25.3056 9.4C25.3056 10.2533 25.539 10.9333 26.0056 11.44C26.4856 11.9333 27.0656 12.18 27.7456 12.18C28.4256 12.18 28.999 11.9333 29.4656 11.44C29.9456 10.9467 30.1856 10.2733 30.1856 9.42ZM41.1598 15.16C40.0665 15.16 39.0798 14.9267 38.1998 14.46C37.3332 13.9933 36.6465 13.3267 36.1398 12.46C35.6465 11.5933 35.3998 10.58 35.3998 9.42C35.3998 8.27333 35.6532 7.26667 36.1598 6.4C36.6665 5.52 37.3598 4.84667 38.2398 4.38C39.1198 3.91333 40.1065 3.68 41.1998 3.68C42.2932 3.68 43.2798 3.91333 44.1598 4.38C45.0398 4.84667 45.7332 5.52 46.2398 6.4C46.7465 7.26667 46.9998 8.27333 46.9998 9.42C46.9998 10.5667 46.7398 11.58 46.2198 12.46C45.7132 13.3267 45.0132 13.9933 44.1198 14.46C43.2398 14.9267 42.2532 15.16 41.1598 15.16ZM41.1598 12.2C41.8132 12.2 42.3665 11.96 42.8198 11.48C43.2865 11 43.5198 10.3133 43.5198 9.42C43.5198 8.52667 43.2932 7.84 42.8398 7.36C42.3998 6.88 41.8532 6.64 41.1998 6.64C40.5332 6.64 39.9798 6.88 39.5398 7.36C39.0998 7.82667 38.8798 8.51333 38.8798 9.42C38.8798 10.3133 39.0932 11 39.5198 11.48C39.9598 11.96 40.5065 12.2 41.1598 12.2Z" fill="#1E1E1E"/>
<path d="M50.4142 15.16C49.8142 15.16 49.3209 14.9867 48.9342 14.64C48.5609 14.28 48.3742 13.84 48.3742 13.32C48.3742 12.7867 48.5609 12.34 48.9342 11.98C49.3209 11.62 49.8142 11.44 50.4142 11.44C51.0009 11.44 51.4809 11.62 51.8542 11.98C52.2409 12.34 52.4342 12.7867 52.4342 13.32C52.4342 13.84 52.2409 14.28 51.8542 14.64C51.4809 14.9867 51.0009 15.16 50.4142 15.16ZM67.0188 15H63.5988L57.8788 6.34V15H54.4588V0.96H57.8788L63.5988 9.66V0.96H67.0188V15ZM68.8178 9.4C68.8178 8.25333 69.0311 7.24667 69.4578 6.38C69.8978 5.51333 70.4911 4.84667 71.2378 4.38C71.9845 3.91333 72.8178 3.68 73.7378 3.68C74.5245 3.68 75.2111 3.84 75.7978 4.16C76.3978 4.48 76.8578 4.9 77.1778 5.42V3.84H80.5978V15H77.1778V13.42C76.8445 13.94 76.3778 14.36 75.7778 14.68C75.1911 15 74.5045 15.16 73.7178 15.16C72.8111 15.16 71.9845 14.9267 71.2378 14.46C70.4911 13.98 69.8978 13.3067 69.4578 12.44C69.0311 11.56 68.8178 10.5467 68.8178 9.4ZM77.1778 9.42C77.1778 8.56667 76.9378 7.89333 76.4578 7.4C75.9911 6.90667 75.4178 6.66 74.7378 6.66C74.0578 6.66 73.4778 6.90667 72.9978 7.4C72.5311 7.88 72.2978 8.54667 72.2978 9.4C72.2978 10.2533 72.5311 10.9333 72.9978 11.44C73.4778 11.9333 74.0578 12.18 74.7378 12.18C75.4178 12.18 75.9911 11.9333 76.4578 11.44C76.9378 10.9467 77.1778 10.2733 77.1778 9.42ZM97.312 3.72C98.6987 3.72 99.7987 4.14 100.612 4.98C101.439 5.82 101.852 6.98667 101.852 8.48V15H98.452V8.94C98.452 8.22 98.2587 7.66667 97.872 7.28C97.4987 6.88 96.9787 6.68 96.312 6.68C95.6454 6.68 95.1187 6.88 94.732 7.28C94.3587 7.66667 94.172 8.22 94.172 8.94V15H90.772V8.94C90.772 8.22 90.5787 7.66667 90.192 7.28C89.8187 6.88 89.2987 6.68 88.632 6.68C87.9654 6.68 87.4387 6.88 87.052 7.28C86.6787 7.66667 86.492 8.22 86.492 8.94V15H83.072V3.84H86.492V5.24C86.8387 4.77333 87.292 4.40667 87.852 4.14C88.412 3.86 89.0454 3.72 89.752 3.72C90.592 3.72 91.3387 3.9 91.992 4.26C92.6587 4.62 93.1787 5.13333 93.552 5.8C93.9387 5.18667 94.4654 4.68667 95.132 4.3C95.7987 3.91333 96.5254 3.72 97.312 3.72ZM114.764 9.24C114.764 9.56 114.744 9.89333 114.704 10.24H106.964C107.017 10.9333 107.237 11.4667 107.624 11.84C108.024 12.2 108.511 12.38 109.084 12.38C109.937 12.38 110.531 12.02 110.864 11.3H114.504C114.317 12.0333 113.977 12.6933 113.484 13.28C113.004 13.8667 112.397 14.3267 111.664 14.66C110.931 14.9933 110.111 15.16 109.204 15.16C108.111 15.16 107.137 14.9267 106.284 14.46C105.431 13.9933 104.764 13.3267 104.284 12.46C103.804 11.5933 103.564 10.58 103.564 9.42C103.564 8.26 103.797 7.24667 104.264 6.38C104.744 5.51333 105.411 4.84667 106.264 4.38C107.117 3.91333 108.097 3.68 109.204 3.68C110.284 3.68 111.244 3.90667 112.084 4.36C112.924 4.81333 113.577 5.46 114.044 6.3C114.524 7.14 114.764 8.12 114.764 9.24ZM111.264 8.34C111.264 7.75333 111.064 7.28667 110.664 6.94C110.264 6.59333 109.764 6.42 109.164 6.42C108.591 6.42 108.104 6.58667 107.704 6.92C107.317 7.25333 107.077 7.72667 106.984 8.34H111.264Z" fill="#0001E6"/>
</svg>
